PathFileType	4	(X/Y/Z)	\\147.46.242.158\로컬 디스크 (e)\MOCAP Data\Iguana Capture\iguana\Project 2\Capture day 7\Session 2\Take06.trc
DataRate	CameraRate	NumFrames	NumMarkers	Units	OrigDataRate	OrigDataStartFrame	OrigNumFrames
120.0	120.0	13	23	mm	120.0	25	14620
Frame#	Time	ana:head1			ana:head2			ana:bone1			ana:bone2			ana:bone3			ana:tail1			ana:tail2			ana:tail3			ana:tail4			ana:Rforefoot1			ana:Rforefoot2			ana:Rforefoot3			ana:Lforefoot1			ana:Lforefoot2			ana:Lforefoot3			ana:RhindLeg1			ana:RhindLeg2			ana:RhindLeg3			ana:RhindLeg4			ana:LhindLeg1			ana:LhindLeg2			ana:LhindLeg3			ana:LhindLeg4			
		X1	Y1	Z1	X2	Y2	Z2	X3	Y3	Z3	X4	Y4	Z4	X5	Y5	Z5	X6	Y6	Z6	X7	Y7	Z7	X8	Y8	Z8	X9	Y9	Z9	X10	Y10	Z10	X11	Y11	Z11	X12	Y12	Z12	X13	Y13	Z13	X14	Y14	Z14	X15	Y15	Z15	X16	Y16	Z16	X17	Y17	Z17	X18	Y18	Z18	X19	Y19	Z19	X20	Y20	Z20	X21	Y21	Z21	X22	Y22	Z22	X23	Y23	Z23	

9487	79.050	84.19080	-365.32257	64.51203	73.73640	-367.78491	64.46195	51.58500	-374.12152	53.16598	27.97747	-379.78064	40.89174	-3.98066	-384.81262	28.33997	-32.70255	-387.05521	16.32093	-62.08279	-368.16290	10.55361	-81.84743	-327.60324	9.34794	-93.84207	-289.32550	10.17360	66.39448	-382.05133	34.00851	65.58897	-390.36713	19.96618	75.65562	-389.47940	13.74224	52.57421	-361.65860	34.94236	45.13844	-359.73102	25.22937	58.19507	-366.88864	8.78991	-0.08457	-396.04315	22.12974	6.88323	-413.72726	20.70960	-4.15058	-422.89853	3.78586	7.20590	-426.87790	5.74687	-0.99103	-377.52927	20.58948	6.21322	-361.23407	24.54797	-0.66552	-349.76724	5.72088	10.05112	-341.53287	7.23188	
9488	79.058	84.20246	-365.32153	64.50530	73.72550	-367.78226	64.45888	51.58117	-374.11862	53.16919	28.01132	-379.73676	40.83831	-4.05114	-384.72504	28.26151	-32.70188	-387.05237	16.31592	-62.08324	-368.16669	10.56113	-82.07569	-327.68524	9.54112	-93.84605	-289.33295	10.17129	66.39457	-382.05383	34.00764	65.58305	-390.37866	19.96907	75.65208	-389.48108	13.74272	52.55710	-361.65997	34.96092	44.66317	-359.68329	25.66038	58.19507	-366.88861	8.78991	-0.10085	-396.03891	22.15884	6.88319	-413.72769	20.70753	-4.15254	-422.90128	3.78790	7.21154	-426.88129	5.74143	-1.00521	-377.53430	20.60265	6.27649	-361.19586	24.47200	-0.66145	-349.76749	5.71576	10.05187	-341.53799	7.23386	
9489	79.067	84.21574	-365.32144	64.49805	73.72243	-367.78928	64.46591	51.58232	-374.11444	53.17015	27.99552	-379.73087	40.85337	-4.11817	-384.64014	28.18653	-32.69575	-387.04733	16.30488	-62.08873	-368.17383	10.57919	-82.38735	-327.79840	9.80331	-93.85559	-289.34869	10.15433	66.39447	-382.05707	34.00651	65.57826	-390.38721	19.96914	75.65768	-389.48395	13.73784	52.56670	-361.66287	34.94968	44.32395	-359.65002	25.96412	58.19507	-366.88861	8.78991	-0.12506	-396.03259	22.19703	6.87864	-413.72766	20.70751	-4.14880	-422.90042	3.78375	7.21676	-426.88641	5.73845	-1.01147	-377.53586	20.60481	6.32900	-361.16891	24.41829	-0.65650	-349.76779	5.71171	10.05214	-341.53922	7.23481	
9490	79.075	84.22662	-365.32510	64.49194	73.73036	-367.78928	64.46893	51.58857	-374.11307	53.16640	27.88548	-379.75317	40.93611	-4.18139	-384.55774	28.11529	-32.69108	-387.04526	16.30280	-62.09225	-368.17767	10.59393	-82.72826	-327.92206	10.08958	-93.86075	-289.37585	10.12128	66.39622	-382.06122	34.00589	65.57975	-390.38675	19.96371	75.66572	-389.48712	13.73236	52.57115	-361.66531	34.94422	44.32637	-359.65353	25.96241	58.19507	-366.88864	8.78992	-0.14528	-396.03662	22.22419	6.87769	-413.72449	20.70413	-4.14652	-422.89993	3.78082	7.21961	-426.88983	5.73925	-1.00544	-377.53235	20.59769	6.39410	-361.12979	24.34262	-0.65101	-349.76791	5.70780	10.05175	-341.54266	7.23822	
9491	79.083	84.23511	-365.32541	64.48741	73.73487	-367.79245	64.47041	51.59130	-374.11667	53.16365	27.69573	-379.81009	41.05960	-4.24044	-384.47766	28.04805	-32.69075	-387.04819	16.29858	-62.09527	-368.17172	10.58911	-83.02371	-328.02563	10.34565	-93.85957	-289.40344	10.09488	66.39895	-382.06323	34.00514	65.58058	-390.38751	19.96188	75.67564	-389.49142	13.72495	52.57737	-361.67105	34.93605	44.48590	-359.67090	25.81401	58.19507	-366.88864	8.78992	-0.15653	-396.04730	22.23266	6.87752	-413.72287	20.70289	-4.14280	-422.89908	3.77858	7.22064	-426.89063	5.74160	-0.99889	-377.51965	20.59332	6.44474	-361.09830	24.28616	-0.64641	-349.76657	5.70479	10.05414	-341.54556	7.23991	
9492	79.092	84.23528	-365.32458	64.48732	73.73151	-367.80328	64.47644	51.59698	-374.12109	53.15747	27.44320	-379.88785	41.21135	-4.29497	-384.39981	27.98507	-32.69016	-387.04410	16.30173	-62.10063	-368.16586	10.58807	-83.22727	-328.09900	10.52696	-93.85970	-289.40732	10.07809	66.39610	-382.07083	34.01070	65.58717	-390.37863	19.95318	75.68826	-389.49219	13.71873	52.64019	-361.61639	34.97394	44.63307	-359.68475	25.68126	58.19507	-366.88864	8.78992	-0.15397	-396.05603	22.22451	6.87915	-413.72186	20.70204	-4.14024	-422.89584	3.77488	7.21751	-426.89087	5.74789	-0.99071	-377.50339	20.59620	6.43234	-361.10358	24.30333	-0.64183	-349.76974	5.70234	10.12756	-341.54288	7.20276	
9493	79.100	84.23259	-365.32190	64.48914	73.72647	-367.80862	64.47979	51.60093	-374.12469	53.15371	27.27061	-379.94443	41.31097	-4.34461	-384.32394	27.92663	-32.69782	-387.04608	16.31561	-62.11031	-368.16635	10.59636	-83.20788	-328.08664	10.52357	-93.84809	-289.41043	10.07566	66.39214	-382.07867	34.01804	65.66220	-390.35776	19.94175	75.69736	-389.48795	13.71516	52.73510	-361.51053	35.06399	44.89252	-359.71075	25.44796	58.19508	-366.88864	8.78992	-0.14848	-396.06848	22.21132	6.88283	-413.72217	20.70354	-4.13783	-422.88861	3.77005	7.21338	-426.88916	5.75237	-0.99175	-377.48999	20.60939	6.48398	-361.10916	24.26604	-0.63719	-349.77066	5.70265	10.25424	-341.53983	7.14226	
9494	79.108	84.30390	-365.33987	64.50307	73.79364	-367.82236	64.50894	51.60436	-374.12762	53.15071	27.20840	-379.96310	41.34865	-4.38902	-384.25006	27.87299	-32.71262	-387.05060	16.33616	-62.16791	-368.17648	10.63516	-82.98812	-328.00195	10.33978	-93.83221	-289.40826	10.08828	66.38941	-382.08463	34.02123	65.71938	-390.34244	19.93190	75.69343	-389.48767	13.71807	52.85717	-361.35947	35.20053	44.98608	-359.72003	25.36379	58.19508	-366.88867	8.78993	-0.14234	-396.07483	22.20168	6.88861	-413.72180	20.70303	-4.13860	-422.88358	3.76817	7.20794	-426.88785	5.75832	-0.93631	-377.48734	20.55418	6.46178	-361.15323	24.31422	-0.64247	-349.77240	5.70787	10.36077	-341.53702	7.09185	
9495	79.117	84.43422	-365.36823	64.53179	73.91911	-367.83249	64.55453	51.60618	-374.13232	53.14697	27.30020	-379.92950	41.28785	-4.42782	-384.17786	27.82441	-32.73206	-387.05359	16.35337	-62.31610	-368.21054	10.74604	-82.67583	-327.89142	10.07625	-93.82236	-289.40311	10.10543	66.38576	-382.07904	34.01470	65.76645	-390.33194	19.93257	75.68684	-389.48517	13.72123	52.99336	-361.18466	35.35029	44.97141	-359.71973	25.36987	58.19508	-366.88867	8.78993	-0.13662	-396.07269	22.19823	6.89141	-413.72128	20.70342	-4.14088	-422.87851	3.76673	7.20519	-426.88571	5.75835	-0.84203	-377.49655	20.44514	6.44876	-361.18927	24.35173	-0.65226	-349.77493	5.71494	10.43635	-341.53271	7.05644	
9496	79.125	84.62224	-365.40634	64.57218	74.09730	-367.84042	64.61189	51.60780	-374.13766	53.14592	27.49922	-379.85507	41.16740	-4.46067	-384.10721	27.78115	-32.78759	-387.06378	16.40357	-62.53630	-368.25778	10.90337	-82.45206	-327.81342	9.88698	-93.80814	-289.39499	10.13001	66.38457	-382.07010	34.01203	65.78316	-390.33414	19.93548	75.67851	-389.48569	13.72438	53.10787	-361.02341	35.48760	45.05327	-359.72876	25.28386	58.14235	-366.85294	8.75622	-0.13374	-396.06381	22.20059	6.89377	-413.72116	20.70322	-4.14356	-422.87546	3.76591	7.20302	-426.88354	5.75783	-0.76254	-377.49783	20.36724	6.43601	-361.20901	24.37654	-0.66067	-349.77481	5.71937	10.43781	-341.53229	7.05626	
9497	79.133	84.83495	-365.44647	64.62245	74.30374	-367.84418	64.67442	51.61282	-374.13940	53.14213	27.75636	-379.76511	41.00074	-4.48720	-384.03802	27.74348	-32.93606	-387.10431	16.50651	-62.74500	-368.29849	11.05606	-82.36035	-327.78354	9.81550	-93.79596	-289.38950	10.14914	66.38602	-382.05136	34.00474	65.76085	-390.34244	19.94123	75.66769	-389.48123	13.72961	53.20337	-360.90601	35.56293	45.11957	-359.72995	25.20186	58.10214	-366.82568	8.73051	-0.20113	-396.06860	22.23388	6.89453	-413.72043	20.70378	-4.14407	-422.87561	3.76612	7.20087	-426.88150	5.75823	-0.70728	-377.49646	20.31339	6.33939	-361.25757	24.49246	-0.66847	-349.77554	5.72363	10.36150	-341.53024	7.09186	
9498	79.142	85.02555	-365.47900	64.67254	74.49030	-367.84143	64.72782	51.61958	-374.13583	53.13991	27.93656	-379.69968	40.88343	-4.50705	-383.97012	27.71167	-33.16500	-387.17740	16.67633	-62.86839	-368.32208	11.14381	-82.31300	-327.77606	9.77023	-93.78863	-289.39365	10.14971	66.39066	-382.02527	33.99402	65.71220	-390.34113	19.94777	75.66441	-389.47675	13.73159	53.25294	-360.83658	35.60637	45.23510	-359.73889	25.07498	58.06449	-366.80011	8.70644	-0.32065	-396.08853	22.28447	6.89511	-413.71857	20.70153	-4.14705	-422.87943	3.76972	7.19717	-426.87900	5.75929	-0.70122	-377.48608	20.32491	6.24308	-361.28412	24.58831	-0.67386	-349.77695	5.72638	10.24696	-341.53030	7.14609	
9499	79.150	85.15920	-365.48856	64.70621	74.61860	-367.83356	64.75063	51.61851	-374.12881	53.14468	28.03199	-379.66818	40.80592	-4.51987	-383.90329	27.68598	-33.35085	-387.24283	16.80348	-62.86481	-368.31775	11.13117	-82.29267	-327.78311	9.74867	-93.77626	-289.39954	10.15867	66.38717	-382.00037	33.99029	65.66003	-390.33527	19.95575	75.65688	-389.47202	13.73558	53.25668	-360.83035	35.60032	45.46105	-359.75259	24.84336	58.04881	-366.78949	8.69641	-0.42228	-396.10770	22.32358	6.89394	-413.71820	20.70072	-4.14734	-422.88287	3.77433	7.19745	-426.87796	5.75871	-0.75262	-377.46942	20.39920	6.13914	-361.31104	24.69051	-0.67724	-349.77664	5.72784	10.11851	-341.53290	7.20688	
